<svg width="51" height="48" viewBox="0 0 51 48" fill="none" xmlns="http://www.w3.org/2000/svg">
<g clip-path="url(#clip0_5752_3332)">
<path d="M33.6214 14.1333C33.5935 14.1906 33.5381 14.2301 33.4747 14.2374C32.0278 14.4053 30.4904 14.2041 29.8976 14.1111C28.9081 13.1227 27.8369 12.0232 27.0473 11.0624C26.9663 10.964 26.9624 10.8232 27.0368 10.7196C28.163 9.14982 29.1944 7.90418 29.6303 7.41099C30.876 7.13954 32.1182 6.89925 32.957 6.86498C33.0204 6.86244 33.0806 6.89161 33.1178 6.94301C34.199 8.44665 34.9724 9.88755 35.2206 10.414C34.7241 11.7477 34.1268 13.0951 33.6214 14.1333ZM32.241 16.6774C31.4434 18.0125 30.8375 18.8174 30.6433 19.0621C30.3798 19.434 29.708 20.4031 28.6644 21.3833C28.5979 21.4458 28.511 21.4818 28.4195 21.4858C27.1126 21.5402 25.8975 21.4486 25.4243 21.3453C25.0236 21.1797 24.091 20.7604 22.9888 20.1511C22.8927 20.098 22.8361 19.9945 22.8433 19.8852C22.9008 19.0309 23.1719 17.8141 23.4117 16.5272C24.0046 15.4862 24.6194 14.2985 25.2568 13.3229C25.3239 13.2203 25.4496 13.1725 25.5682 13.2049C27.4767 13.7258 29.1328 14.1214 29.8052 14.2726C30.7258 15.3399 31.6179 16.0904 32.2181 16.5556C32.2554 16.5846 32.2651 16.6369 32.241 16.6774ZM20.6938 18.5327C20.5971 18.5926 20.4739 18.5894 20.381 18.5236C19.5499 17.9355 18.5584 17.1839 17.7325 16.4123C17.2453 15.5799 16.8696 14.5147 16.6073 13.6075C16.5904 13.5491 16.6034 13.4858 16.6419 13.4387C17.5687 12.2997 18.6809 11.3984 19.1458 11.0553C20.1948 11.5077 21.3988 11.9069 22.452 12.2571C22.5597 12.2928 22.6358 12.3894 22.6447 12.5022C22.7932 14.3755 23.1365 15.8904 23.2281 16.4693C22.8349 16.8894 21.8074 17.8417 20.6938 18.5327ZM16.0779 11.1618C15.9404 10.2775 15.85 9.34877 15.84 8.92341C15.8172 7.94127 15.9733 7.07144 16.1545 6.26616C16.1843 6.13433 16.2527 6.01482 16.3525 5.92349C16.879 5.44135 17.831 4.59076 18.4319 4.20547C18.9983 3.84241 20.5723 3.33435 21.2214 3.14588C21.3472 3.10921 21.4813 3.16514 21.546 3.27885C21.624 3.41592 21.7056 3.55199 21.7921 3.68595C22.3032 4.4813 22.8663 5.16608 23.1035 5.46259C22.7891 6.71064 22.6555 8.10992 22.5946 9.29029C22.5889 9.40102 22.5183 9.49802 22.4149 9.53837C20.7726 10.1788 19.5314 10.6799 19.1143 10.8724C17.986 10.92 16.9112 11.1122 16.1858 11.239C16.1344 11.248 16.0859 11.2131 16.0779 11.1618ZM24.3566 2.59096C24.4015 2.5213 24.4751 2.47486 24.5574 2.46395C26.2461 2.24093 27.7912 2.20808 28.3851 2.2245C29.4658 2.94298 30.5219 3.89098 31.3647 4.78999C31.4237 4.853 31.4325 4.94788 31.3859 5.02066C30.7845 5.96101 29.9098 6.86385 29.5256 7.25707C28.1007 7.59422 26.5901 8.085 25.364 8.48728C25.2447 8.52636 25.1136 8.48205 25.0424 8.37868C24.112 7.02754 23.5208 5.86926 23.289 5.43951C23.5406 4.31309 23.8925 3.31 24.3566 2.59096ZM35.6375 13.6822C35.6072 13.6958 35.5725 13.6745 35.5708 13.6415C35.5 12.2545 35.3723 10.9069 35.3055 10.414C35.3109 9.21623 35.1122 7.97328 34.914 7.05671C34.9069 7.02358 34.9362 6.99398 34.9696 7.00063C36.1032 7.23201 36.4671 7.65638 36.4671 7.65638C35.867 6.31133 35.0022 5.29776 34.0623 4.53171C33.2588 2.84994 32.3339 2.07215 32.3339 2.07215C32.4087 2.44412 32.3572 2.86481 32.2246 3.29896C32.2163 3.32656 32.1846 3.33974 32.1586 3.32714C30.6185 2.5744 29.0281 2.23059 28.4129 2.1445C27.4937 1.6979 26.4896 1.40238 25.6731 1.17837C25.6514 1.17243 25.6454 1.14425 25.6629 1.12966C26.7466 0.23079 27.7435 0.00196774 27.7435 0.00196774C25.9787 -0.0686901 24.4597 0.25033 23.1896 0.738139C21.292 0.586204 20.0832 0.915989 20.0832 0.915989C20.0832 0.915989 20.6072 1.5427 20.8109 1.8916C20.8354 1.93381 20.8226 1.98789 20.7824 2.01565C19.5888 2.84258 18.7324 3.75094 18.3948 4.12915C18.0186 4.17998 17.3671 4.2699 16.7981 4.41008C16.7754 4.41574 16.7562 4.39294 16.7653 4.37143C17.3351 3.01533 17.9563 2.26457 17.9563 2.26457C17.9563 2.26457 14.2939 4.86291 13.5997 9.532C13.5997 9.532 13.9012 8.70436 14.921 7.44993C14.9344 7.4335 14.9604 7.43676 14.9691 7.45616C15.2581 8.09533 15.5884 8.66286 15.7544 8.92341C15.1936 9.82539 14.8064 10.8089 14.568 11.6138C14.5597 11.6418 14.5386 11.6642 14.5111 11.6745C13.6629 11.9962 13.4468 12.3031 13.4468 12.3031C13.5787 12.7531 13.8376 13.1917 14.1648 13.6052C14.1932 13.6409 14.2076 13.6856 14.2057 13.7312C14.1156 15.7238 14.7591 17.0354 14.7591 17.0354C14.9044 16.3395 15.1889 15.6635 15.5482 15.029C15.5625 15.0037 15.5962 14.9974 15.6189 15.0154C16.456 15.6796 17.3231 16.2603 17.6672 16.4665C17.8447 16.9193 18.3528 18.0941 19.0318 19.2993C19.046 19.3248 19.0345 19.3569 19.0071 19.3669C18.194 19.6628 17.3599 19.7967 16.5951 19.6107C16.5951 19.6107 17.5174 20.7586 20.3627 21.2481C21.152 22.1799 22.1126 22.9516 23.2344 23.2196C23.2344 23.2196 22.9056 22.8585 22.8244 21.5129C22.8227 21.4857 22.8445 21.4624 22.8719 21.4629C23.5744 21.4734 24.5273 21.4887 25.3996 21.4254C25.7088 21.6689 26.3834 22.2033 27.0414 22.5438C27.0742 22.5608 27.0763 22.6069 27.0448 22.626C25.8881 23.3245 25.1185 23.3853 25.1185 23.3853C30.3578 23.4967 33.5035 20.0843 33.5035 20.0843C32.6405 20.6512 31.6439 21.0037 30.6519 21.2137C30.6185 21.2208 30.5891 21.1913 30.5961 21.1578C30.7804 20.2678 30.7287 19.4072 30.7157 19.104C31.9588 18.7961 33.0432 18.2414 33.846 17.6743C33.8622 17.6629 33.8838 17.6627 33.9002 17.6741C34.2344 17.9063 34.5204 18.1668 34.8058 18.6005C34.8058 18.6005 35.3494 17.8325 35.5364 16.0531C36.8822 14.2985 37.0823 12.5026 37.0823 12.5026C36.7446 13.0299 36.2347 13.4099 35.6375 13.6822ZM25.2647 31.007C23.0174 31.007 20.9786 32.0102 19.735 33.4935L20.1295 33.9794C21.2589 32.5772 23.1803 31.6131 25.2647 31.6131C27.3493 31.6131 29.2706 32.5772 30.4 33.9794L30.7944 33.4935C29.5507 32.0102 27.512 31.007 25.2647 31.007ZM20.0081 31.3219C19.8603 31.4418 19.6885 31.5004 19.5368 31.4824C19.3445 31.4604 19.2278 31.3818 19.0364 31.1462L17.9344 29.7945L17.3402 30.2763L18.5404 31.7496C18.7954 32.0615 19.0862 32.2285 19.429 32.2599C19.4695 32.2637 19.5096 32.2658 19.5493 32.2661C19.8815 32.269 20.1901 32.1521 20.4891 31.9107C20.8222 31.6392 21.0051 31.3241 21.0479 30.9472C21.0869 30.6057 20.9825 30.2876 20.7282 29.9748L19.5282 28.502L18.934 28.9839L20.0355 30.3362V30.3365C20.2276 30.5712 20.2806 30.7015 20.2629 30.894C20.2496 31.0456 20.1568 31.2016 20.0081 31.3219ZM24.0722 27.0635L22.1473 27.4534C22.0594 27.4711 21.9899 27.515 21.9467 27.5805C21.903 27.6459 21.8896 27.7267 21.9074 27.8143L22.291 29.7001C22.3535 30.0068 22.4913 30.2276 22.7007 30.3566C22.8393 30.4419 23.0054 30.4845 23.1969 30.4844C23.2944 30.4843 23.3985 30.473 23.5087 30.4507L24.7118 30.2071L24.5671 29.4953L23.3967 29.7324C23.1571 29.7807 23.0793 29.7543 23.0247 29.486L22.9835 29.2837L24.3373 29.0095L24.1942 28.3058L22.8403 28.5798L22.7375 28.075L24.2171 27.7753L24.0722 27.0635ZM27.8153 28.0925L28.9688 28.3906L29.151 27.6888L27.9649 27.3822C27.3148 27.2142 26.8696 27.457 26.7114 28.0659L26.2271 29.9307C26.2048 30.0173 26.2138 30.0985 26.2536 30.1661C26.2933 30.2336 26.3601 30.281 26.4469 30.3035L26.8872 30.4172L27.1993 29.2112L28.5343 29.5562L28.7146 28.8626L27.3792 28.5173L27.4311 28.3179C27.4997 28.0535 27.5788 28.0313 27.8153 28.0925ZM33.8005 29.7956L34.2077 29.294C34.0055 29.0921 33.795 28.8962 33.5757 28.7074C31.2971 26.7449 28.3454 25.6643 25.2647 25.6643C22.184 25.6643 19.2325 26.7449 16.9536 28.7074C16.7344 28.8962 16.5238 29.092 16.3216 29.2939L16.7288 29.7955C16.9345 29.5879 17.1494 29.3867 17.3739 29.1932C19.536 27.3314 22.3382 26.3061 25.2647 26.3061C28.1911 26.3061 30.9934 27.3314 33.1553 29.1932C33.38 29.3867 33.5949 29.5879 33.8005 29.7956ZM30.692 32.2852L30.8241 31.8305L30.2558 31.4069L30.7134 31.0798L30.9785 31.2785L31.2795 30.2659L29.5328 31.3927L28.8168 30.9885L31.5565 29.2196C31.6621 29.1514 31.8066 29.0912 31.9895 29.2316L32.1066 29.3216C32.2912 29.4634 32.2648 29.6259 32.2287 29.7357L31.3193 32.8581L30.692 32.2852ZM17.7982 47.0728H15.7777V45.5248H16.9818L17.4747 45.9442H17.4912V44.3638H17.4747L16.9818 44.7832H15.7777V43.4366H17.7255L18.2913 44.0415H18.3073L18.2427 42.7027H14.0883V42.7191L14.4686 43.1786V47.339L14.0883 47.7984V47.8146H18.4205L18.5256 46.2747H18.5092L17.7982 47.0728ZM18.5615 36.7836L19.9922 40.4281H20.7923L22.1179 36.7435L22.3439 39.9521L21.8428 40.4116V40.4281H24.0168V40.4116L23.5969 39.9521L23.2893 35.7916L23.6209 35.3321V35.3162H21.8107L20.5821 38.7264L19.2565 35.3162H17.422V35.3321L17.7939 35.7916L17.5754 39.9521L17.1313 40.4116V40.4281H18.917V40.4116L18.4728 39.9521L18.5615 36.7836ZM12.5457 47.0647H10.7921V43.1786L11.2691 42.7191V42.7027H9.10277V42.7191L9.483 43.1786V47.339L9.10277 47.7903V47.8146H13.168L13.3623 46.2104H13.3458L12.5457 47.0647ZM8.63054 40.4116V40.4281H10.6917V40.4116L10.3115 39.9521V35.7916L10.6917 35.3321V35.3162H8.63054V35.3321L9.00242 35.7916V37.3398H7.16789V35.7916L7.53977 35.3321V35.3162H5.47872V35.3321L5.85868 35.7916V39.9521L5.47872 40.4116V40.4281H7.53977V40.4116L7.16789 39.9521V38.1542H9.00242V39.9521L8.63054 40.4116ZM40.8204 47.0728H38.7998V45.5248H40.0038L40.4968 45.9442H40.5132V44.3638H40.4968L40.0038 44.7832H38.7998V43.4366H40.7478L41.3133 44.0415H41.3294L41.265 42.7027H37.1106V42.7191L37.4908 43.1786V47.339L37.1106 47.7984V47.8146H41.4427L41.5479 46.2747H41.5314L40.8204 47.0728ZM22.2726 45.7746L21.6667 43.7433L20.9553 45.7746H22.2726ZM24.0829 47.339L24.5032 47.7984V47.8146H22.3132V47.7984L22.7335 47.339L22.4992 46.5409H20.6889L20.4138 47.339L20.8099 47.7984V47.8146H19.0966V47.7984L19.5008 47.339L21.0767 43.1786L20.7775 42.7191V42.7027H22.5151L24.0829 47.339ZM3.08739 39.7507C2.03649 39.7507 1.36571 38.6862 1.36571 37.7669C1.36571 36.6382 1.97986 35.9047 2.86085 35.9047C3.09519 35.9047 3.32172 35.9289 3.52384 35.9849L4.3157 36.9608H4.33202L4.27539 35.3482C4.04886 35.2596 3.55619 35.1384 2.94985 35.1384C1.07516 35.1384 0 36.4125 0 37.8799C0 39.3314 1.03443 40.6049 2.81245 40.6049C3.28936 40.6049 3.99251 40.444 4.47736 40.0812L4.55004 39.2346H4.534C4.12195 39.5569 3.5315 39.7507 3.08739 39.7507ZM32.5171 40.4116L32.1453 39.9521V35.7916L32.5171 35.3321V35.3162H30.4561V35.3321L30.836 35.7916V39.9521L30.4561 40.4116V40.4281H32.5171V40.4116ZM27.9961 45.4199L28.5051 45.8799V46.8393C28.3433 47.0246 28.0605 47.1776 27.6809 47.1776C26.7756 47.1776 26.2987 46.0732 26.2987 45.1459C26.2987 44.138 26.8081 43.2916 27.8586 43.2916C28.1495 43.2916 28.4567 43.3158 28.7071 43.4042L29.5154 44.2748H29.5314L29.4829 42.8722C29.0142 42.6302 28.4485 42.5258 27.8746 42.5258C26.1533 42.5258 24.9328 43.582 24.9328 45.3234C24.9328 46.7824 25.8704 47.9922 27.3331 47.9922C27.9718 47.9922 28.5535 47.8469 29.095 47.4521L29.7332 47.9922H29.7497V45.8799L30.1536 45.4199V45.4039H27.9961V45.4199ZM26.6584 37.9447C26.8202 37.993 27.0058 38.0171 27.1999 38.0171C27.9113 38.0171 28.2184 37.6301 28.2184 37.0575C28.2184 36.3801 27.8223 36.0579 27.0866 36.0579H26.6584V37.9447ZM25.3493 39.9521V35.7916L24.9692 35.3321V35.3162H27.394C28.8649 35.3162 29.5357 35.9849 29.5357 37.0015C29.5357 38.0575 28.7356 38.7105 27.6446 38.7105C27.289 38.7105 26.9252 38.6862 26.6584 38.6219V39.9521L27.1918 40.4116V40.4281H24.9692V40.4116L25.3493 39.9521ZM37.5598 38.2427C37.5598 37.356 37.2286 35.9449 36.0968 35.9449C35.1916 35.9449 34.933 36.8479 34.933 37.4605C34.933 38.3557 35.3049 39.7989 36.3962 39.7989C37.1798 39.7989 37.5598 39.0569 37.5598 38.2427ZM36.202 40.6049C34.6018 40.6049 33.5674 39.2907 33.5674 37.7996C33.5674 36.2594 34.7553 35.1384 36.2425 35.1384C37.883 35.1384 38.9338 36.4207 38.9338 37.8881C38.9338 39.5651 37.6649 40.6049 36.202 40.6049ZM34.4928 42.7191L34.9132 43.1786V46.0895C34.9132 46.9279 34.5011 47.1375 33.8302 47.1375C33.1512 47.1375 32.7392 46.9438 32.7392 46.0895V43.1786L33.1595 42.7191V42.7027H31.0498V42.7191L31.4299 43.1786V46.0895C31.4299 47.4839 32.1411 47.9922 33.6603 47.9922C35.0424 47.9922 35.7456 47.5164 35.7456 46.1296V43.1786L36.1171 42.7191V42.7027H34.4928V42.7191ZM44.2539 43.3472C44.2539 42.9839 43.9776 42.7091 43.6291 42.7091C43.2767 42.7091 43.0009 42.9839 43.0009 43.3472C43.0009 43.7181 43.2767 43.9909 43.6291 43.9909C43.9776 43.9909 44.2539 43.7181 44.2539 43.3472ZM44.4089 43.3472C44.4089 43.7933 44.0488 44.1187 43.6291 44.1187C43.2057 44.1187 42.8462 43.7933 42.8462 43.3472C42.8462 42.9065 43.2057 42.5807 43.6291 42.5807C44.0488 42.5807 44.4089 42.9065 44.4089 43.3472ZM43.6279 43.2941C43.7416 43.2941 43.8439 43.2879 43.8439 43.151C43.8439 43.0407 43.744 43.0207 43.6492 43.0207H43.4656V43.2941H43.6279ZM43.7542 43.4026L44.0051 43.7932H43.8555L43.6218 43.4089H43.4656V43.7932H43.3319V42.9065H43.6703C43.8805 42.9065 43.9839 42.9839 43.9839 43.1584C43.9839 43.3172 43.884 43.3857 43.7542 43.4026ZM43.4182 35.3321L43.9114 35.7916V38.5007L41.8341 35.3162H39.9671V35.3321L40.3472 35.7916V39.9521L39.9671 40.4116V40.4281H41.6724V40.4116L41.1716 39.9521V36.5656L43.7655 40.4281H44.7355V35.7916L45.1153 35.3321V35.3162H43.4182V35.3321ZM48.6297 37.2835C47.7003 37.0255 47.4175 36.9126 47.4175 36.4854C47.4175 35.9936 48.0561 35.8966 48.4602 35.8966C48.7996 35.8966 49.1149 35.9367 49.3977 36.0256L50.1736 36.8643H50.1896L50.1251 35.4207C49.6399 35.2356 49.1309 35.1384 48.5492 35.1384C47.3287 35.1384 46.1568 35.5578 46.1568 36.7676C46.1568 37.5494 46.6983 38.0171 47.8702 38.3398C48.7755 38.5896 49.22 38.7507 49.22 39.2104C49.22 39.7424 48.541 39.8551 48.0882 39.8551C47.7085 39.8551 47.369 39.7989 47.0779 39.7101L46.2943 38.7427H46.2779L46.3345 40.2744C46.8682 40.5164 47.5147 40.6049 48.1205 40.6049C49.4298 40.6049 50.5291 40.057 50.5291 38.9524C50.5291 37.9122 49.8099 37.614 48.6297 37.2835ZM13.1473 38.388H14.4646L13.8587 36.3561L13.1473 38.388ZM13.002 40.4281H11.2886V40.4116L11.693 39.9521L13.2689 35.7916L12.9697 35.3321V35.3162H14.7072L16.2751 39.9521L16.6953 40.4116V40.4281H14.5053V40.4116L14.9257 39.9521L14.6912 39.1539H12.8809L12.6059 39.9521L13.002 40.4116V40.4281Z" fill="#DEE5FD"/>
</g>
<defs>
<clipPath id="clip0_5752_3332">
<rect width="50.5291" height="48.0001" fill="white"/>
</clipPath>
</defs>
</svg>
